<svg width="19" height="20" fill="none" xmlns="http://www.w3.org/2000/svg"><path d="M16.32 7.47s-.54 6.73-.85 9.57c-.15 1.36-.99 2.15-2.36 2.17-2.61.05-5.22.05-7.83 0-1.32-.03-2.14-.83-2.29-2.16a482.3 482.3 0 01-.86-9.58" stroke="currentColor" stroke-width="1.5" stroke-linecap="round" stroke-linejoin="round"/><path d="M17.7 4.24H.76" stroke="currentColor" stroke-width="1.5" stroke-linecap="round" stroke-linejoin="round"/><path d="M14.44 4.24c-.78 0-1.46-.56-1.61-1.32l-.25-1.22a1.28 1.28 0 00-1.23-.95H7.1c-.58 0-1.08.39-1.23.95l-.25 1.22a1.65 1.65 0 01-1.61 1.32" stroke="currentColor" stroke-width="1.5" stroke-linecap="round" stroke-linejoin="round"/></svg>
