<svg xmlns="http://www.w3.org/2000/svg" viewBox="0 0 471.7 471.7"><path d="M361 201v-75A125 125 0 00237 0h-1c-69 0-125 57-125 126v75c-26 3-45 25-45 51v168c0 28 23 52 51 52h238c28 0 51-24 51-52V252c0-26-19-48-45-51zm-230-75c0-58 47-106 105-106 27 0 54 11 73 30 21 20 32 47 32 76v75h-22v-75c0-23-9-45-25-61a81 81 0 00-58-23c-46 0-83 37-83 84v75h-22v-75zm168 0v75H173v-75c0-36 28-64 63-64h1c16 0 31 6 43 18s19 29 19 46zm88 294c0 18-14 32-32 32H118c-18 0-32-15-32-32V252c0-17 14-31 31-31h238c18 0 32 14 32 31v168z"/><path d="M270 330c-4-15-18-26-34-26a36 36 0 00-10 71v28c0 5 4 10 10 10s10-5 10-10v-28c19-6 30-26 24-45zm-34 26a16 16 0 110-32 16 16 0 010 32z"/></svg>
