<svg viewBox="3.206 3.205 25.59 25.59" xmlns="http://www.w3.org/2000/svg"><path d="M27.993 8.536H24.53V5.61c0-1.328-1.076-2.405-2.405-2.405H5.611c-1.328 0-2.405 1.077-2.405 2.405v22.383c0 .443.359.802.802.802h23.986a.802.802 0 0 0 .802-.802V9.338a.802.802 0 0 0-.802-.802zM5.61 4.271h16.514c.738 0 1.339.601 1.339 1.339v2.926H4.271V5.61c0-.738.601-1.339 1.339-1.339zm22.119 23.458H4.272V9.603h23.457v18.126z" fill="#67a0eb"/><path d="M20.265 18.666c0 1.472 1.194 2.665 2.666 2.665s2.665-1.193 2.665-2.665S24.403 16 22.931 16s-2.666 1.193-2.666 2.666zm4.265 0c0 .881-.717 1.598-1.599 1.598s-1.6-.717-1.6-1.598c0-.882.718-1.599 1.6-1.599s1.599.717 1.599 1.599z" fill="#67a0eb"/></svg>
