<svg width="20" height="20" fill="none" xmlns="http://www.w3.org/2000/svg"><path clip-rule="evenodd" d="M11.1 2.18l1.83 3.65c.18.36.53.6.93.66l4.09.6a1.21 1.21 0 01.68 2.06L15.67 12a1.2 1.2 0 00-.35 1.08l.7 4c.17 1-.89 1.76-1.8 1.29l-3.65-1.9a1.25 1.25 0 00-1.14 0l-3.66 1.9c-.9.47-1.96-.29-1.78-1.28l.7-4.01c.06-.4-.07-.8-.36-1.08L1.37 9.15c-.73-.7-.33-1.92.68-2.07l4.1-.59c.4-.06.74-.3.92-.66L8.9 2.18c.45-.9 1.75-.9 2.2 0z" stroke="currentColor" stroke-width="1.5" stroke-linecap="round" stroke-linejoin="round"/></svg>
