<svg height="512" width="512" xmlns="http://www.w3.org/2000/svg"><path d="M47 508c6 5 15 5 21 0l198-199 3 27a15 15 0 0027 7l50-67 77 33a15 15 0 0020-20l-33-77 67-50a15 15 0 00-7-27l-83-10-10-83a15 15 0 00-27-7l-50 67-77-33a15 15 0 00-20 20l33 77-67 50a15 15 0 007 27l27 3L4 444c-5 6-5 15 0 21zm217-325c5-5 7-12 4-18l-22-54 53 23c6 3 14 1 18-5l35-46 6 58c1 6 7 12 13 13l58 6-46 35c-6 4-8 12-5 18l23 53-54-22c-6-3-13-1-18 4l-34 47-7-58c-1-7-6-12-13-13l-58-7zm-23 67l19 2 2 19L57 476l-21-21z"/><path d="M440 51l-21 21a15 15 0 1021 21l21-21a15 15 0 10-21-21z"/><path d="M273 1c-8 2-13 10-11 18l8 29a15 15 0 1029-8l-8-29c-2-8-10-13-18-10z"/><path d="M358 319c-8 2-13 11-11 19l8 29a15 15 0 1029-8l-8-29c-2-8-10-13-18-11z"/><path d="M153 128a15 15 0 00-8 29l29 8a15 15 0 008-29z"/><path d="M501 221l-29-8a15 15 0 00-8 29l29 8a15 15 0 008-29z"/></svg>
